<svg class="absolute inset-0 w-full h-full z-10 cursor-crosshair" style="touch-action: none;"><path d="M 604 405 L 615 418 L 644 452 L 675 487 L 695 509 L 706 522" stroke="red" stroke-width="2" fill="none"></path><path d="M 601 516 L 604 512 L 623 491 L 655 455 L 682 422 L 703 399 L 718 383 L 731 371 L 745 361" stroke="red" stroke-width="2" fill="none"></path><path d="M 1031 524 L 1031 533 L 1032 555 L 1033 580 L 1036 600 L 1039 612 L 1043 620 L 1047 624 L 1049 625 L 1051 626 L 1054 626 L 1060 622 L 1072 611 L 1088 592 L 1104 572 L 1114 553 L 1119 541 L 1121 533 L 1122 528 L 1122 525 L 1122 525 L 1122 526 L 1122 528 L 1122 532 L 1123 536 L 1124 542 L 1126 550 L 1129 556 L 1132 561 L 1135 564 L 1137 566 L 1139 566 L 1140 566 L 1142 566 L 1143 566" stroke="red" stroke-width="2" fill="none"></path><path d="M 1023 469 L 1028 469 L 1053 465 L 1123 455 L 1211 442 L 1283 431" stroke="red" stroke-width="2" fill="none"></path><path d="M 802 411 L 806 416 L 812 422 L 823 436 L 839 455 L 853 471 L 863 482 L 872 489 L 881 491 L 889 492 L 897 491 L 903 489 L 909 486 L 916 482 L 926 477 L 935 471 L 942 465 L 947 462 L 948 461 L 949 460 L 949 459 L 949 459 L 948 459 L 944 460 L 936 463 L 924 470 L 910 481 L 897 492 L 886 502 L 879 511 L 873 517 L 867 522 L 861 526 L 854 531 L 848 535 L 839 541 L 831 548 L 825 553 L 820 558" stroke="red" stroke-width="2" fill="none"></path><g><line x1="689" y1="347" x2="1193" y2="312" stroke="yellow" stroke-width="2"></line><line x1="1193" y1="312" x2="1334" y2="648" stroke="yellow" stroke-width="2"></line><text x="1203" y="302" fill="yellow" font-size="16">108.8°</text></g></svg>