<svg class="absolute inset-0 z-10 h-full w-full cursor-crosshair" style="touch-action: none;"><path d="M 590 596 L 590 599 L 590 604 L 590 608 L 590 616 L 590 622 L 590 625 L 590 626 L 590 626 L 590 627 L 590 627 L 590 627 L 590 628 L 590 628 L 590 628 L 590 629 L 590 629 L 590 630 L 590 631 L 591 633 L 591 634 L 591 634 L 591 635 L 591 635 L 592 636 L 592 636 L 592 637 L 592 637 L 592 637 L 593 637 L 593 637 L 593 637 L 593 637 L 594 637 L 594 637 L 595 637 L 597 637 L 598 637 L 599 637 L 600 637 L 602 637 L 605 637 L 609 639 L 614 642 L 618 645 L 621 647 L 622 648 L 623 649" stroke="red" stroke-width="2" fill="none"></path><path d="M 901 635 L 901 635 L 903 635 L 906 635 L 909 636 L 912 637 L 914 637 L 915 638 L 916 638 L 916 638 L 916 638 L 917 638 L 917 637 L 917 636 L 917 635 L 917 634 L 917 633 L 918 631 L 918 630 L 918 629 L 918 628 L 918 627 L 918 626 L 918 625 L 918 624 L 918 623 L 918 622 L 918 622 L 918 622 L 917 622" stroke="red" stroke-width="2" fill="none"></path><path d="M 627 328 L 629 330 L 637 337 L 654 355 L 679 382 L 705 414 L 727 442 L 744 463 L 755 475 L 763 483 L 768 487 L 770 489 L 771 490 L 772 490 L 772 491 L 772 491 L 773 491" stroke="red" stroke-width="2" fill="none"></path><path d="M 632 453 L 634 451 L 647 440 L 677 412 L 720 372 L 759 332 L 784 304 L 798 287 L 806 278 L 808 275 L 808 274 L 809 274 L 809 274 L 809 274 L 809 275 L 809 275 L 808 276 L 808 276 L 808 276" stroke="red" stroke-width="2" fill="none"></path><path d="M 869 144 L 870 145 L 871 145 L 873 146 L 877 148 L 882 150 L 887 151 L 893 153 L 898 154 L 901 154 L 903 154 L 904 154 L 906 154 L 908 154 L 909 154 L 910 154 L 911 154 L 913 153 L 918 153 L 923 152 L 927 151 L 929 150 L 930 150 L 930 150 L 931 150 L 931 150 L 930 150 L 930 150 L 930 150 L 928 150 L 926 150 L 924 150 L 922 150 L 922 150 L 921 150 L 921 150 L 921 151 L 920 152 L 920 155 L 920 158 L 919 161 L 919 164 L 919 165 L 919 166 L 919 167 L 919 168 L 919 169 L 920 170 L 921 171 L 921 172 L 922 173 L 922 175 L 922 177 L 923 179 L 923 180 L 923 181 L 923 181 L 923 182 L 923 183 L 924 184 L 924 185 L 924 186 L 924 187 L 924 188 L 924 189 L 924 190 L 924 191 L 924 192 L 924 192 L 924 193 L 924 194 L 924 195 L 924 197 L 923 199 L 923 200 L 922 202 L 922 203 L 921 204 L 921 205 L 921 206 L 921 206" stroke="red" stroke-width="2" fill="none"></path></svg>