<svg class="absolute inset-0 w-full h-full z-10 cursor-crosshair" style="touch-action: none;"><g><circle cx="706.3122676579926" cy="483.06877323420076" r="22.17172776811575" stroke="#ef4444" stroke-width="2" fill="none"></circle><text x="706.3122676579926" y="483.06877323420076" fill="#ef4444" font-size="16" font-weight="bold" text-anchor="middle" dominant-baseline="middle">Ø 9.8</text></g><path d="M 705 604 L 708 606 L 714 608 L 724 609 L 738 611 L 755 609 L 771 604 L 787 594 L 804 581 L 819 567 L 828 557 L 833 549 L 836 541 L 837 536 L 837 531 L 837 527 L 836 523 L 833 519 L 825 514 L 813 508 L 797 500 L 780 492 L 765 484 L 750 476 L 736 466 L 724 456 L 713 447 L 705 438 L 699 420 L 700 381 L 712 333" stroke="red" stroke-width="2" fill="none"></path></svg>