<svg class="pointer-events-none absolute inset-0 z-10 h-full w-full" style="touch-action: none;"><g><line x1="789.10546875" y1="521.28125" x2="1096.36328125" y2="187.42578125" stroke="#ff0000" stroke-width="1.5" stroke-dasharray="4 2"></line><circle cx="789.10546875" cy="521.28125" r="3" fill="#ff0000"></circle><text x="1096.36328125" y="187.42578125" fill="#ff0000" font-size="16" font-family="Arial, sans-serif" font-weight="bold" alignment-baseline="middle" text-anchor="start">1</text></g><g><line x1="724.65625" y1="393.546875" x2="359.16796875" y2="311.671875" stroke="#ff0000" stroke-width="1.5" stroke-dasharray="4 2"></line><circle cx="724.65625" cy="393.546875" r="3" fill="#ff0000"></circle><text x="359.16796875" y="311.671875" fill="#ff0000" font-size="16" font-family="Arial, sans-serif" font-weight="bold" alignment-baseline="middle" text-anchor="start">2</text></g><path d="M 555.58984375 350.16796875 L 556.6640625 346.33203125 L 559.65625 338.9765625 L 571.23046875 319.375 L 596.60546875 279.45703125 L 632.2578125 228.06640625 L 670.21484375 180.27734375 L 709.09765625 141.31640625 L 750.93359375 109.68359375 L 788.51953125 90.4921875 L 821.28515625 80.44140625 L 846.2890625 76.73046875 L 862.44921875 80.84375 L 874.5703125 94.90234375 L 881.6875 116.76953125 L 884.38671875 150.65625 L 881.125 194.9921875 L 864.98046875 240.97265625 L 837.75 281.44921875 L 799.875 315.19140625 L 755.62890625 339.734375 L 714.8515625 351.15234375 L 678.32421875 354.96875 L 647.3125 352.4765625 L 626.15234375 347.66015625 L 613.68359375 343.37890625 L 606.28515625 340.671875 L 603.640625 339.796875 L 602.6953125 339.6875 L 602.51171875 339.83203125 L 602.66796875 340.33203125 L 604.65234375 342.75 L 609.8671875 347.4375 L 617.98046875 354.36328125 L 628.453125 364.015625 L 641.59765625 376.671875 L 655.87109375 389.77734375 L 672.6171875 400.9453125 L 694.13671875 409.375 L 718.2421875 413.625 L 749.2578125 414.44921875 L 781.59765625 410.21875 L 810.453125 399.453125 L 838.3984375 385.47265625 L 860.3671875 374.12890625 L 879.23046875 366.5859375 L 895.76953125 362.578125 L 907.80078125 363.28515625 L 922.3046875 376.99609375 L 936.23828125 401.3984375 L 943.4765625 428.1328125 L 946.4921875 455.71484375 L 946.32421875 478.37109375 L 940.9296875 495.9921875 L 930.4609375 511.1171875 L 919.8828125 522.93359375 L 911.1484375 530.8125 L 904.546875 535.75 L 900.2421875 538.1015625 L 898.0390625 539.0234375 L 897.26171875 539.27734375 L 897.46484375 539.30859375 L 899.6328125 539.30859375 L 905.25 539.62109375 L 911.82421875 540.296875 L 915.93359375 540.92578125 L 917.73828125 541.3828125 L 914.6796875 541.83984375 L 896.44921875 542.078125 L 856.82421875 541.13671875 L 797.82421875 538.88671875 L 717.0390625 534.5703125 L 631.296875 528.13671875 L 551.1953125 519.421875 L 486.08984375 511.10546875 L 437.62109375 504.06640625 L 396.4609375 495.453125 L 368.66796875 487.4375 L 349.171875 477.80859375 L 331.76171875 459.9140625 L 317.1484375 437.46484375 L 305.4765625 410.57421875 L 295.85546875 381.09375 L 289.84375 350.28515625 L 286.18359375 317.890625 L 284.66015625 288.26171875 L 286.23828125 260.20703125 L 293.265625 234.21484375 L 306.09375 212.921875 L 324.9375 195.875 L 352.62890625 181.08203125 L 382.46484375 171.63671875 L 406.33203125 167.12890625 L 423.22265625 165.0859375 L 432.66796875 164.28125 L 436.88671875 163.82421875 L 438.328125 163.6328125 L 438.68359375 163.40234375 L 438.76171875 162.50390625 L 438.62890625 160.7421875 L 438.4375 158.03125 L 441.22265625 153.65234375 L 456.47265625 146.71484375 L 488.54296875 139.88671875 L 488.54296875 139.88671875" stroke="red" stroke-width="2" fill="none"></path></svg>