<svg class="absolute inset-0 w-full h-full z-10 cursor-crosshair" style="touch-action: none;"><path d="M 781 565 L 778 564 L 771 561 L 759 556 L 747 552 L 738 548 L 731 544 L 726 541 L 724 539 L 723 537 L 722 534 L 723 527 L 727 517 L 732 507 L 736 500 L 739 495 L 742 493 L 745 492 L 752 490 L 760 489 L 769 489 L 776 489 L 782 490 L 785 491 L 787 493 L 789 496 L 789 500 L 789 504 L 789 510 L 787 516 L 784 522 L 782 526 L 781 528 L 781 530 L 787 531 L 799 533 L 812 534 L 824 534 L 834 534 L 841 531 L 848 525 L 854 518 L 857 510 L 860 501 L 861 493 L 861 485 L 859 477 L 854 469 L 847 460 L 838 453 L 824 445 L 804 438 L 778 432 L 750 426 L 729 422 L 714 421 L 704 420 L 698 420 L 696 420 L 695 420 L 695 421 L 695 421 L 695 421 L 695 421 L 696 421 L 698 421 L 700 419 L 706 414 L 726 394 L 738 381 L 749 371 L 760 362 L 768 357 L 774 354 L 779 352 L 783 352 L 785 352 L 786 352 L 788 354 L 790 355 L 792 357 L 799 360" stroke="red" stroke-width="2" fill="none"></path></svg>