<svg class="absolute inset-0 w-full h-full z-10 cursor-crosshair" style="touch-action: none;"><path d="M 514 391 L 517 394 L 524 401 L 533 410 L 541 417 L 549 424 L 556 430 L 562 433 L 567 436 L 570 438 L 572 439 L 574 441 L 575 442 L 576 442 L 576 443 L 577 443 L 577 443 L 577 442 L 577 442 L 576 441 L 576 439 L 576 435 L 578 428 L 582 416 L 587 402 L 591 390 L 595 383 L 596 378 L 597 376 L 597 375 L 596 376 L 593 378 L 583 386 L 570 396 L 557 406 L 547 414 L 538 420 L 534 422 L 533 423 L 532 424 L 532 424 L 532 425 L 532 425 L 532 425 L 532 425 L 532 426 L 532 426 L 532 426 L 532 427 L 531 427 L 531 428 L 531 428 L 530 429 L 530 429 L 530 429 L 529 429 L 529 430 L 528 431 L 525 434 L 521 439 L 516 443 L 512 446 L 510 448 L 509 449 L 509 449 L 509 449 L 510 449 L 510 449" stroke="red" stroke-width="2" fill="none"></path><path d="M 712 382 L 711 382 L 711 382 L 711 383 L 711 385 L 716 389 L 724 395 L 736 400 L 748 403 L 758 404 L 767 403 L 775 401 L 781 396 L 788 389 L 794 382 L 797 377 L 800 374 L 801 373 L 801 372 L 799 373 L 793 375 L 783 381 L 769 390 L 753 402 L 739 413 L 728 423 L 721 431 L 715 438 L 711 442 L 710 444 L 709 445 L 708 446 L 705 450 L 699 457 L 693 467 L 688 475 L 687 478 L 686 480 L 686 484 L 688 486 L 692 483 L 702 475 L 722 460 L 749 440 L 779 425 L 809 414 L 838 405 L 862 398 L 879 392 L 891 386 L 899 382 L 905 377 L 910 371 L 917 361 L 923 350 L 929 341 L 932 334 L 934 330 L 936 327 L 935 326 L 933 324 L 928 325 L 921 330 L 911 343 L 902 355 L 895 364 L 889 372 L 884 377 L 882 379 L 879 381 L 876 384 L 873 386 L 870 388 L 868 390 L 866 392 L 863 393 L 862 395 L 860 396 L 858 397 L 857 398 L 855 399 L 855 402 L 855 409 L 854 416 L 853 423 L 853 427 L 852 429 L 852 430 L 852 430 L 852 431 L 853 431 L 853 433 L 854 434 L 855 434 L 855 435 L 856 435 L 857 435 L 859 435 L 861 433 L 867 428 L 876 420 L 887 408 L 896 399 L 902 393 L 905 390 L 906 389 L 906 389" stroke="red" stroke-width="2" fill="none"></path></svg>