<svg class="pointer-events-none absolute inset-0 z-10 h-full w-full" style="touch-action: none;"><g><line x1="659.859375" y1="540.22265625" x2="854.58984375" y2="542.11328125" stroke="#3b82f6" stroke-width="2"></line><text x="864.58984375" y="542.11328125" fill="#3b82f6" font-size="16" font-weight="bold">19.9 mm</text></g><g><circle cx="727.2189659144001" cy="393.8546883262897" r="59.06796871968453" stroke="#ef4444" stroke-width="2" fill="none"></circle><text x="727.2189659144001" y="393.8546883262897" fill="#ef4444" font-size="16" font-weight="bold" text-anchor="middle" dominant-baseline="middle">Ø 12.1</text></g><g><line x1="854.5078125" y1="248.1953125" x2="938.15625" y2="313.4296875" stroke="#ff0000" stroke-width="1.5" stroke-dasharray="4 2"></line><circle cx="854.5078125" cy="248.1953125" r="3" fill="#ff0000"></circle><text x="938.15625" y="313.4296875" fill="#ff0000" font-size="16" font-family="Arial, sans-serif" font-weight="bold" alignment-baseline="middle" text-anchor="start">1</text></g><path d="M 619.7109375 455.89453125 L 626.34375 460.10546875 L 644.59375 470.5390625 L 668.95703125 481.25 L 694.703125 488.73046875 L 718.23046875 493.30078125 L 738.70703125 495.4765625 L 758.765625 495.0078125 L 779.48828125 490.33203125 L 797.67578125 482.09765625 L 811.13671875 473.22265625 L 820.09765625 466.1484375 L 826.24609375 459.9609375 L 832.37890625 452.79296875 L 839.84375 442.21484375 L 848.54296875 427.765625 L 854.8515625 414.28125 L 858.3203125 403.49609375 L 860.04296875 395.45703125 L 860.30859375 389.44921875 L 860.140625 383.4765625 L 858.44921875 376.56640625 L 853.35546875 364.15234375 L 843.61328125 345.63671875 L 827.6640625 323.58984375 L 809.83984375 301.30078125 L 794.9296875 281.8984375 L 783.27734375 266.92578125 L 774.65625 256.0078125 L 766.875 247.39453125 L 759.2578125 241.89453125 L 750.88671875 237.52734375 L 739.5078125 232.0390625 L 725.8359375 225.703125 L 711.76953125 219.921875 L 696.1015625 215.140625 L 679.68359375 211.765625 L 666.91796875 210.1796875 L 657.3515625 209.65234375 L 650.19921875 209.5390625 L 646.2734375 209.5390625 L 644.2734375 209.5390625 L 643.453125 209.41015625 L 643.23828125 209.4140625 L 643.23828125 209.84375 L 643.3828125 210.57421875 L 643.63671875 211.35546875 L 643.78125 212.21484375 L 643.8125 214.40234375 L 643.8125 220.234375 L 642.859375 235.078125 L 639.34765625 262.1875 L 634.671875 298.21875 L 631.8515625 335.609375 L 631.14453125 371.09375 L 631.7578125 402.98046875 L 632.81640625 424.2109375 L 633.66015625 436.33203125 L 634.33203125 443.46875 L 634.6015625 446.45703125 L 634.6015625 446.45703125" stroke="red" stroke-width="2" fill="none"></path></svg>