<svg class="absolute inset-0 w-full h-full z-10 cursor-crosshair"><g><circle cx="640.0617491590582" cy="290.0814512253724" r="100.3022145014845" stroke="#ef4444" stroke-width="2" fill="none"></circle><text x="640.0617491590582" y="290.0814512253724" fill="#ef4444" font-size="16" font-weight="bold" text-anchor="middle" dominant-baseline="middle">Ø 30.8</text></g><g><circle cx="863.7823110624315" cy="274.3099671412924" r="74.4159845621499" stroke="#ef4444" stroke-width="2" fill="none"></circle><text x="863.7823110624315" y="274.3099671412924" fill="#ef4444" font-size="16" font-weight="bold" text-anchor="middle" dominant-baseline="middle">Ø 22.9</text></g><g><circle cx="485.4176276771005" cy="134.30889621087314" r="49.90194316745042" stroke="#ef4444" stroke-width="2" fill="none"></circle><text x="485.4176276771005" y="134.30889621087314" fill="#ef4444" font-size="16" font-weight="bold" text-anchor="middle" dominant-baseline="middle">Ø 15.3</text></g><g><line x1="488" y1="186" x2="407" y2="238" stroke="#3b82f6" stroke-width="2"></line><text x="417" y="238" fill="#3b82f6" font-size="16" font-weight="bold">14.8 mm</text></g><g><line x1="438" y1="148" x2="532" y2="122" stroke="#3b82f6" stroke-width="2"></line><text x="542" y="122" fill="#3b82f6" font-size="16" font-weight="bold">15 mm</text></g><path d="M 954 222 L 954 222 L 954 222 L 955 223 L 955 223 L 956 224 L 957 225 L 958 225 L 958 226 L 959 227 L 960 227 L 961 228 L 963 229 L 965 231 L 966 232 L 967 234 L 968 235 L 970 236 L 971 237 L 972 238 L 973 239 L 974 240 L 975 242 L 976 243 L 979 245 L 981 248 L 983 251 L 985 253 L 986 255 L 987 257 L 988 259 L 988 260 L 989 261 L 989 263 L 990 266 L 991 269 L 992 272 L 993 275 L 994 277 L 994 279 L 994 281 L 994 283 L 994 284 L 995 286 L 995 288 L 995 290 L 995 291 L 995 293 L 995 295 L 995 298 L 995 301 L 995 304 L 995 307 L 995 310 L 995 313 L 995 316 L 995 320 L 995 323 L 995 326 L 995 328 L 995 332 L 995 335 L 995 338 L 995 341 L 995 344 L 995 346 L 995 349 L 995 351 L 995 354 L 995 357 L 995 360 L 996 362 L 996 364 L 996 365 L 996 366 L 996 367 L 996 369 L 996 370 L 997 372 L 997 373 L 997 374 L 997 375 L 997 375 L 997 375 L 997 374 L 996 374 L 996 373 L 996 373 L 996 373 L 996 374 L 996 374 L 996 374 L 996 374 L 996 374 L 996 374 L 996 374 L 996 374 L 995 374 L 995 373 L 995 373 L 994 373 L 994 372 L 993 371 L 991 370 L 989 369 L 986 369 L 984 368 L 982 367 L 980 367 L 979 366 L 978 366 L 976 365 L 975 364 L 974 364 L 973 363 L 972 363 L 972 362 L 971 362 L 971 361 L 970 360 L 970 359 L 969 358 L 968 356 L 966 355 L 965 354 L 964 352 L 962 350 L 962 349 L 961 347 L 960 345 L 960 342 L 959 338 L 959 333 L 959 327 L 959 321 L 959 317 L 958 313 L 958 309 L 958 305 L 958 301 L 959 298 L 959 296 L 959 294 L 959 293 L 959 291 L 958 288 L 958 286 L 958 284 L 958 281 L 958 279 L 958 277 L 957 276 L 957 274 L 957 272 L 957 270 L 957 268 L 956 266 L 956 264 L 956 262 L 956 259 L 956 256 L 956 253 L 956 251 L 956 249 L 956 249 L 956 248 L 956 247 L 956 247 L 956 246 L 955 244 L 954 243 L 954 242 L 953 242 L 952 241 L 951 240 L 951 239 L 950 237 L 949 236 L 948 235 L 947 234 L 947 233 L 946 232 L 945 231 L 944 230 L 944 230 L 944 229 L 944 228 L 944 227 L 944 227 L 944 226 L 944 225 L 944 224 L 944 224 L 944 223 L 944 222 L 944 220 L 944 219 L 944 217 L 944 215 L 944 214 L 944 212 L 944 211 L 944 210 L 945 209 L 945 209 L 945 209 L 946 209 L 947 208 L 949 207 L 952 206 L 954 206 L 955 205 L 956 205 L 958 205 L 961 206 L 964 207 L 967 208 L 968 209 L 969 210 L 970 212" stroke="red" stroke-width="2" fill="none"></path><path d="M 995 236" stroke="red" stroke-width="2" fill="none"></path><path d="M 709 202 L 712 203 L 719 204 L 725 205 L 731 206 L 736 206 L 740 206 L 745 206 L 749 206 L 754 206 L 757 205 L 759 205 L 762 204 L 764 203 L 765 203 L 767 203 L 767 202 L 768 202 L 769 202 L 770 202 L 772 202 L 773 201 L 774 201 L 776 201 L 779 201 L 782 200 L 786 199 L 788 198 L 790 198 L 791 197 L 793 197 L 795 196 L 796 195 L 797 194 L 798 193 L 798 193 L 798 193 L 799 192 L 799 191 L 799 191 L 799 191 L 799 190 L 798 190 L 798 189 L 797 188 L 796 187 L 794 185 L 791 183 L 786 181 L 781 179 L 776 177 L 771 175 L 766 174 L 760 172 L 755 171 L 749 171 L 745 170 L 741 170 L 737 170 L 733 170 L 729 170 L 725 170 L 721 171 L 718 172 L 716 173 L 714 174 L 712 176 L 711 177 L 710 178 L 710 178 L 710 179 L 710 180 L 710 180 L 710 181 L 710 182 L 710 184 L 710 187 L 709 191 L 709 196 L 708 200 L 708 202 L 708 203 L 708 204 L 708 205 L 708 205 L 709 206 L 709 206 L 709 206 L 709 207 L 710 207 L 710 207 L 710 207 L 710 207 L 711 207 L 711 207" stroke="red" stroke-width="2" fill="none"></path><g><line x1="940" y1="422" x2="1071" y2="400" stroke="#ff0000" stroke-width="1.5" stroke-dasharray="4 2"></line><circle cx="940" cy="422" r="3" fill="#ff0000"></circle><text x="1071" y="400" fill="#ff0000" font-size="16" font-family="Arial, sans-serif" font-weight="bold" alignment-baseline="middle" text-anchor="start">нога и тд</text></g><g><line x1="732" y1="377" x2="839" y2="344" stroke="yellow" stroke-width="2"></line><line x1="839" y1="344" x2="937" y2="456" stroke="yellow" stroke-width="2"></line><text x="849" y="334" fill="yellow" font-size="16">114°</text></g></svg>