<svg class="absolute inset-0 w-full h-full z-10 cursor-crosshair"><g><circle cx="586.9348441926346" cy="299.9610481586402" r="76.84872624642513" stroke="#ef4444" stroke-width="2" fill="none"></circle><text x="586.9348441926346" y="299.9610481586402" fill="#ef4444" font-size="16" font-weight="bold" text-anchor="middle" dominant-baseline="middle">Ø 20.3</text></g><g><line x1="532" y1="242" x2="633" y2="360" stroke="#3b82f6" stroke-width="2"></line><text x="643" y="360" fill="#3b82f6" font-size="16" font-weight="bold">20.5 mm</text></g><g><line x1="426" y1="48" x2="453" y2="156" stroke="#3b82f6" stroke-width="2"></line><text x="463" y="156" fill="#3b82f6" font-size="16" font-weight="bold">14.7 mm</text></g><path d="M 530 174 L 530 174 L 531 173 L 533 171 L 539 167 L 548 161 L 556 156 L 562 152 L 566 149 L 567 148 L 568 147 L 568 145 L 568 142 L 567 138 L 566 134 L 563 129 L 559 125 L 555 121 L 551 118 L 548 116 L 545 115 L 543 114 L 541 114 L 539 114 L 537 114 L 537 114 L 537 115 L 538 115 L 541 115 L 545 115 L 548 115 L 551 115 L 552 115 L 553 115 L 554 115 L 554 116 L 553 116 L 553 116 L 553 117 L 553 117 L 553 117 L 553 118 L 555 119 L 558 120 L 562 121 L 567 122 L 571 122 L 575 123 L 579 123 L 583 124 L 586 125 L 588 126 L 588 127 L 589 129 L 589 131 L 589 134 L 589 136 L 589 139 L 592 141 L 597 145 L 602 148 L 606 149 L 608 150 L 610 150 L 610 151 L 610 152 L 609 154 L 608 158 L 607 161 L 606 163 L 606 164 L 606 165 L 607 165 L 609 165 L 610 165 L 611 165 L 611 165 L 611 165 L 611 167 L 611 169 L 610 170 L 610 171 L 610 172 L 610 172 L 612 172 L 615 172 L 617 172 L 618 172 L 618 172 L 619 172 L 619 172 L 619 173 L 621 176 L 624 181 L 630 188 L 635 196" stroke="red" stroke-width="2" fill="none"></path><path d="M 705 181 L 705 181 L 703 180 L 699 177 L 696 175 L 692 171 L 689 165 L 686 155 L 685 146 L 684 138 L 684 132 L 684 127 L 687 121 L 695 111 L 705 101 L 710 95 L 715 90 L 722 88 L 734 86 L 747 85 L 759 86 L 767 88 L 771 90 L 774 93 L 778 98 L 784 109 L 794 128 L 803 154 L 809 181 L 811 206 L 812 222 L 811 233 L 809 239 L 804 242 L 796 244 L 784 245 L 771 244 L 758 243 L 746 240 L 734 237 L 720 230 L 705 223 L 689 213 L 675 203 L 667 195 L 662 190 L 660 188 L 660 187 L 660 186 L 661 185" stroke="red" stroke-width="2" fill="none"></path></svg>